<mxfile host="app.diagrams.net" modified="2021-11-24T18:24:40.075Z" agent="5.0 (Windows NT 10.0; Win64; x64) AppleWebKit/537.36 (KHTML, like Gecko) Chrome/96.0.4664.45 Safari/537.36" etag="kEpQuqYudBEUidxxzHw3" version="15.8.3" type="github">
  <diagram id="3MY4AUTtC3BZhcMlzD9B" name="Page-1">
    <mxGraphModel dx="868" dy="496" grid="1" gridSize="10" guides="1" tooltips="1" connect="1" arrows="1" fold="1" page="1" pageScale="1" pageWidth="1169" pageHeight="827" math="0" shadow="0">
      <root>
        <mxCell id="0" />
        <mxCell id="1" parent="0" />
        <mxCell id="yZ4FVXIt3ejTABx9WLvd-17" style="edgeStyle=orthogonalEdgeStyle;rounded=0;orthogonalLoop=1;jettySize=auto;html=1;exitX=1;exitY=0.5;exitDx=0;exitDy=0;endArrow=none;endFill=0;" edge="1" parent="1" source="yZ4FVXIt3ejTABx9WLvd-2" target="yZ4FVXIt3ejTABx9WLvd-8">
          <mxGeometry relative="1" as="geometry" />
        </mxCell>
        <mxCell id="yZ4FVXIt3ejTABx9WLvd-19" value="1" style="edgeLabel;html=1;align=center;verticalAlign=middle;resizable=0;points=[];" vertex="1" connectable="0" parent="yZ4FVXIt3ejTABx9WLvd-17">
          <mxGeometry x="-0.7108" y="-1" relative="1" as="geometry">
            <mxPoint as="offset" />
          </mxGeometry>
        </mxCell>
        <mxCell id="yZ4FVXIt3ejTABx9WLvd-20" value="1" style="edgeLabel;html=1;align=center;verticalAlign=middle;resizable=0;points=[];" vertex="1" connectable="0" parent="yZ4FVXIt3ejTABx9WLvd-17">
          <mxGeometry x="0.7831" y="1" relative="1" as="geometry">
            <mxPoint as="offset" />
          </mxGeometry>
        </mxCell>
        <mxCell id="yZ4FVXIt3ejTABx9WLvd-2" value="Aluno" style="whiteSpace=wrap;html=1;align=center;" vertex="1" parent="1">
          <mxGeometry x="310" y="454" width="100" height="40" as="geometry" />
        </mxCell>
        <mxCell id="yZ4FVXIt3ejTABx9WLvd-5" value="Attribute" style="ellipse;whiteSpace=wrap;html=1;align=center;" vertex="1" parent="1">
          <mxGeometry x="90" y="414" width="100" height="40" as="geometry" />
        </mxCell>
        <mxCell id="yZ4FVXIt3ejTABx9WLvd-6" value="Attribute" style="ellipse;whiteSpace=wrap;html=1;align=center;fontStyle=4;" vertex="1" parent="1">
          <mxGeometry x="90" y="350" width="100" height="40" as="geometry" />
        </mxCell>
        <mxCell id="yZ4FVXIt3ejTABx9WLvd-18" style="edgeStyle=orthogonalEdgeStyle;rounded=0;orthogonalLoop=1;jettySize=auto;html=1;exitX=1;exitY=0.5;exitDx=0;exitDy=0;endArrow=none;endFill=0;" edge="1" parent="1" source="yZ4FVXIt3ejTABx9WLvd-8" target="yZ4FVXIt3ejTABx9WLvd-10">
          <mxGeometry relative="1" as="geometry" />
        </mxCell>
        <mxCell id="yZ4FVXIt3ejTABx9WLvd-21" value="n" style="edgeLabel;html=1;align=center;verticalAlign=middle;resizable=0;points=[];" vertex="1" connectable="0" parent="yZ4FVXIt3ejTABx9WLvd-18">
          <mxGeometry x="-0.7417" y="-5" relative="1" as="geometry">
            <mxPoint x="1" y="-5" as="offset" />
          </mxGeometry>
        </mxCell>
        <mxCell id="yZ4FVXIt3ejTABx9WLvd-22" value="1" style="edgeLabel;html=1;align=center;verticalAlign=middle;resizable=0;points=[];" vertex="1" connectable="0" parent="yZ4FVXIt3ejTABx9WLvd-18">
          <mxGeometry x="0.7491" y="-2" relative="1" as="geometry">
            <mxPoint as="offset" />
          </mxGeometry>
        </mxCell>
        <mxCell id="yZ4FVXIt3ejTABx9WLvd-8" value="Orientacao" style="whiteSpace=wrap;html=1;align=center;" vertex="1" parent="1">
          <mxGeometry x="534.5" y="454" width="100" height="40" as="geometry" />
        </mxCell>
        <mxCell id="yZ4FVXIt3ejTABx9WLvd-10" value="Professor" style="whiteSpace=wrap;html=1;align=center;" vertex="1" parent="1">
          <mxGeometry x="770" y="454" width="100" height="40" as="geometry" />
        </mxCell>
        <mxCell id="yZ4FVXIt3ejTABx9WLvd-11" value="Entity" style="whiteSpace=wrap;html=1;align=center;" vertex="1" parent="1">
          <mxGeometry x="90" y="480" width="100" height="40" as="geometry" />
        </mxCell>
        <mxCell id="yZ4FVXIt3ejTABx9WLvd-12" value="Curso" style="whiteSpace=wrap;html=1;align=center;" vertex="1" parent="1">
          <mxGeometry x="280" y="760" width="100" height="40" as="geometry" />
        </mxCell>
        <mxCell id="yZ4FVXIt3ejTABx9WLvd-15" value="Departamento" style="whiteSpace=wrap;html=1;align=center;" vertex="1" parent="1">
          <mxGeometry x="430" y="760" width="100" height="40" as="geometry" />
        </mxCell>
      </root>
    </mxGraphModel>
  </diagram>
</mxfile>
